<?xml version="1.0" encoding="UTF-8"?>
<!DOCTYPE svg PUBLIC "-//W3C//DTD SVG 1.1//EN" "http://www.w3.org/Graphics/SVG/1.1/DTD/svg11.dtd">
<svg version="1.2" width="100mm" height="100mm" viewBox="0 0 10000 10000" preserveAspectRatio="xMidYMid" fill-rule="evenodd" stroke-width="28.222" stroke-linejoin="round" xmlns="http://www.w3.org/2000/svg" xmlns:ooo="http://xml.openoffice.org/svg/export" xmlns:xlink="http://www.w3.org/1999/xlink" xmlns:presentation="http://sun.com/xmlns/staroffice/presentation" xmlns:smil="http://www.w3.org/2001/SMIL20/" xmlns:anim="urn:oasis:names:tc:opendocument:xmlns:animation:1.0" xml:space="preserve">
 <defs class="ClipPathGroup">
  <clipPath id="presentation_clip_path" clipPathUnits="userSpaceOnUse">
   <rect x="0" y="0" width="10000" height="10000"/>
  </clipPath>
  <clipPath id="presentation_clip_path_shrink" clipPathUnits="userSpaceOnUse">
   <rect x="10" y="10" width="9980" height="9980"/>
  </clipPath>
 </defs>
 <defs class="TextShapeIndex">
  <g ooo:slide="id1" ooo:id-list="id3 id4 id5 id6 id7 id8 id9 id10 id11 id12 id13 id14 id15"/>
 </defs>
 <defs class="EmbeddedBulletChars">
  <g id="bullet-char-template-57356" transform="scale(0.00048828125,-0.00048828125)">
   <path d="M 580,1141 L 1163,571 580,0 -4,571 580,1141 Z"/>
  </g>
  <g id="bullet-char-template-57354" transform="scale(0.00048828125,-0.00048828125)">
   <path d="M 8,1128 L 1137,1128 1137,0 8,0 8,1128 Z"/>
  </g>
  <g id="bullet-char-template-10146" transform="scale(0.00048828125,-0.00048828125)">
   <path d="M 174,0 L 602,739 174,1481 1456,739 174,0 Z M 1358,739 L 309,1346 659,739 1358,739 Z"/>
  </g>
  <g id="bullet-char-template-10132" transform="scale(0.00048828125,-0.00048828125)">
   <path d="M 2015,739 L 1276,0 717,0 1260,543 174,543 174,936 1260,936 717,1481 1274,1481 2015,739 Z"/>
  </g>
  <g id="bullet-char-template-10007" transform="scale(0.00048828125,-0.00048828125)">
   <path d="M 0,-2 C -7,14 -16,27 -25,37 L 356,567 C 262,823 215,952 215,954 215,979 228,992 255,992 264,992 276,990 289,987 310,991 331,999 354,1012 L 381,999 492,748 772,1049 836,1024 860,1049 C 881,1039 901,1025 922,1006 886,937 835,863 770,784 769,783 710,716 594,584 L 774,223 C 774,196 753,168 711,139 L 727,119 C 717,90 699,76 672,76 641,76 570,178 457,381 L 164,-76 C 142,-110 111,-127 72,-127 30,-127 9,-110 8,-76 1,-67 -2,-52 -2,-32 -2,-23 -1,-13 0,-2 Z"/>
  </g>
  <g id="bullet-char-template-10004" transform="scale(0.00048828125,-0.00048828125)">
   <path d="M 285,-33 C 182,-33 111,30 74,156 52,228 41,333 41,471 41,549 55,616 82,672 116,743 169,778 240,778 293,778 328,747 346,684 L 369,508 C 377,444 397,411 428,410 L 1163,1116 C 1174,1127 1196,1133 1229,1133 1271,1133 1292,1118 1292,1087 L 1292,965 C 1292,929 1282,901 1262,881 L 442,47 C 390,-6 338,-33 285,-33 Z"/>
  </g>
  <g id="bullet-char-template-9679" transform="scale(0.00048828125,-0.00048828125)">
   <path d="M 813,0 C 632,0 489,54 383,161 276,268 223,411 223,592 223,773 276,916 383,1023 489,1130 632,1184 813,1184 992,1184 1136,1130 1245,1023 1353,916 1407,772 1407,592 1407,412 1353,268 1245,161 1136,54 992,0 813,0 Z"/>
  </g>
  <g id="bullet-char-template-8226" transform="scale(0.00048828125,-0.00048828125)">
   <path d="M 346,457 C 273,457 209,483 155,535 101,586 74,649 74,723 74,796 101,859 155,911 209,963 273,989 346,989 419,989 480,963 531,910 582,859 608,796 608,723 608,648 583,586 532,535 482,483 420,457 346,457 Z"/>
  </g>
  <g id="bullet-char-template-8211" transform="scale(0.00048828125,-0.00048828125)">
   <path d="M -4,459 L 1135,459 1135,606 -4,606 -4,459 Z"/>
  </g>
  <g id="bullet-char-template-61548" transform="scale(0.00048828125,-0.00048828125)">
   <path d="M 173,740 C 173,903 231,1043 346,1159 462,1274 601,1332 765,1332 928,1332 1067,1274 1183,1159 1299,1043 1357,903 1357,740 1357,577 1299,437 1183,322 1067,206 928,148 765,148 601,148 462,206 346,322 231,437 173,577 173,740 Z"/>
  </g>
 </defs>
 <defs class="TextEmbeddedBitmaps"/>
 <g>
  <g id="id2" class="Master_Slide">
   <g id="bg-id2" class="Background"/>
   <g id="bo-id2" class="BackgroundObjects"/>
  </g>
 </g>
 <g class="SlideGroup">
  <g>
   <g id="container-id1">
    <g id="id1" class="Slide" clip-path="url(#presentation_clip_path)">
     <g class="Page">
      <g class="Group">
       <g class="com.sun.star.drawing.ClosedBezierShape">
        <g id="id3">
         <rect class="BoundingBox" stroke="none" fill="none" x="1358" y="400" width="7254" height="5319"/>
         <g>
          <defs>
           <linearGradient id="gradient1" x1="1357" y1="3059" x2="8611" y2="3059" gradientUnits="userSpaceOnUse">
            <stop offset="0" style="stop-color:rgb(255,219,13)"/>
            <stop offset="1" style="stop-color:rgb(255,255,255)"/>
           </linearGradient>
          </defs>
          <path style="fill:url(#gradient1)" d="M 4986,400 L 4616,414 4256,454 3909,520 3575,610 3258,722 2959,855 2680,1009 2422,1181 2188,1370 1979,1575 1797,1794 1644,2027 1521,2271 1432,2526 1377,2790 1358,3061 1377,3331 1432,3594 1521,3848 1644,4092 1797,4324 1979,4543 2188,4748 2422,4937 2680,5109 2959,5262 3258,5396 3575,5508 3909,5598 4256,5664 4616,5704 4986,5718 5356,5704 5715,5664 6062,5598 6395,5508 6712,5396 7011,5262 7290,5109 7547,4937 7782,4748 7991,4543 8172,4324 8325,4092 8448,3848 8537,3594 8592,3331 8611,3061 8592,2790 8537,2526 8448,2271 8325,2027 8172,1794 7991,1575 7782,1370 7547,1181 7290,1009 7011,855 6712,722 6395,610 6062,520 5715,454 5356,414 4986,400 Z M 4982,5575 L 4982,5575 4626,5562 4279,5524 3945,5462 3625,5378 3320,5272 3032,5147 2763,5003 2515,4841 2290,4663 2089,4470 1914,4264 1767,4045 1649,3815 1563,3575 1510,3327 1492,3071 1510,2815 1563,2567 1649,2327 1767,2097 1914,1878 2089,1671 2290,1478 2515,1300 2763,1138 3032,994 3320,869 3625,763 3945,679 4279,617 4626,579 4982,566 5337,579 5683,617 6016,679 6336,763 6640,869 6927,994 7195,1138 7443,1300 7667,1478 7868,1671 8042,1878 8189,2097 8306,2327 8392,2567 8445,2815 8463,3071 8445,3327 8392,3575 8306,3815 8189,4045 8042,4264 7868,4470 7667,4663 7443,4841 7195,5003 6927,5147 6640,5272 6336,5378 6016,5462 5683,5524 5337,5562 4982,5575 Z"/>
         </g>
        </g>
       </g>
       <g class="com.sun.star.drawing.ClosedBezierShape">
        <g id="id4">
         <rect class="BoundingBox" stroke="none" fill="none" x="1650" y="723" width="6657" height="4695"/>
         <path fill="rgb(0,0,0)" stroke="none" d="M 4982,723 C 3144,723 1650,1775 1650,3069 1650,4364 3144,5417 4982,5417 6815,5417 8305,4364 8305,3069 8305,1775 6815,723 4982,723 Z"/>
        </g>
       </g>
       <g class="com.sun.star.drawing.PolyPolygonShape">
        <g id="id5">
         <rect class="BoundingBox" stroke="none" fill="none" x="2578" y="750" width="4735" height="4629"/>
         <g>
          <defs>
           <linearGradient id="gradient2" x1="3982" y1="266" x2="5908" y2="5862" gradientUnits="userSpaceOnUse">
            <stop offset="0.03" style="stop-color:rgb(255,219,13)"/>
            <stop offset="1" style="stop-color:rgb(255,255,255)"/>
           </linearGradient>
          </defs>
          <path style="fill:url(#gradient2)" d="M 7022,3449 L 6939,3441 6827,3449 6754,3434 6663,3381 6574,3301 6447,3212 6366,3183 6276,3183 6172,3190 6090,3212 6012,3182 7312,3072 6013,2960 6090,2930 6172,2944 6276,2960 6366,2960 6447,2922 6574,2833 6663,2760 6754,2701 6827,2686 6939,2694 7022,2686 7096,2656 7245,2560 7141,2597 7066,2612 6991,2620 6925,2612 6843,2597 6775,2590 6693,2597 6611,2634 6552,2678 6470,2745 6402,2781 6328,2789 6276,2781 6209,2760 6134,2745 6034,2732 7110,2169 5838,2589 5859,2560 5932,2493 6015,2487 6119,2465 6209,2435 6276,2383 6366,2257 6432,2161 6493,2079 6567,2043 6671,2013 6754,1984 6813,1932 6925,1792 6827,1865 6768,1895 6701,1932 6627,1939 6552,1947 6477,1961 6402,1991 6342,2058 6299,2124 6238,2206 6187,2257 6119,2294 6074,2302 5993,2302 5919,2309 5825,2321 6634,1496 5578,2263 5582,2250 5627,2161 5702,2124 5791,2058 5859,2006 5903,1925 5932,1784 5962,1659 5993,1563 6038,1503 6126,1437 6195,1377 6231,1304 6276,1141 6216,1237 6172,1297 6119,1348 6060,1385 5993,1422 5932,1459 5874,1518 5844,1599 5828,1680 5806,1776 5777,1842 5724,1895 5679,1925 5612,1954 5545,1991 5484,2030 5881,948 5247,2058 5254,2013 5298,1947 5351,1858 5388,1784 5396,1688 5374,1539 5344,1422 5330,1317 5351,1251 5404,1147 5441,1074 5441,992 5419,815 5404,933 5388,999 5366,1074 5322,1133 5277,1193 5247,1251 5210,1325 5217,1414 5233,1496 5254,1591 5254,1666 5233,1740 5201,1776 5150,1836 5106,1887 5054,1967 4950,750 4851,1963 4793,1880 4747,1822 4695,1769 4673,1725 4643,1659 4643,1576 4666,1488 4688,1407 4688,1317 4659,1244 4621,1178 4569,1119 4524,1067 4509,992 4486,919 4471,807 4450,985 4457,1060 4486,1141 4538,1237 4561,1311 4546,1414 4517,1532 4494,1680 4503,1769 4538,1842 4598,1939 4650,2006 4657,2069 4010,948 4405,2027 4345,1991 4286,1954 4210,1925 4166,1895 4114,1842 4091,1776 4069,1680 4054,1599 4017,1518 3958,1459 3898,1422 3823,1385 3763,1348 3719,1297 3673,1237 3614,1141 3666,1304 3696,1377 3763,1437 3853,1503 3905,1563 3928,1659 3958,1784 3986,1925 4031,2006 4106,2058 4188,2124 4262,2161 4308,2250 4309,2255 3264,1496 4067,2321 3972,2309 3898,2302 3815,2302 3771,2294 3704,2257 3644,2206 3592,2124 3547,2058 3487,1991 3413,1961 3338,1947 3264,1939 3190,1932 3129,1895 3062,1865 2973,1792 3085,1932 3137,1984 3219,2013 3324,2043 3397,2079 3458,2161 3525,2257 3622,2383 3689,2435 3763,2465 3875,2487 3958,2493 4031,2560 4056,2590 2772,2169 3856,2733 3756,2745 3682,2760 3614,2781 3562,2789 3487,2781 3420,2745 3338,2678 3278,2634 3198,2597 3122,2590 3048,2597 2965,2612 2898,2620 2824,2612 2750,2597 2646,2560 2794,2656 2869,2686 2951,2694 3062,2686 3145,2701 3226,2760 3324,2833 3443,2922 3525,2960 3614,2960 3719,2944 3801,2930 3879,2960 2578,3072 3880,3182 3801,3212 3719,3190 3614,3183 3525,3183 3443,3212 3324,3301 3226,3381 3145,3434 3062,3449 2951,3441 2869,3449 2794,3478 2646,3582 2750,3536 2824,3522 2898,3515 2965,3522 3048,3544 3122,3552 3198,3544 3278,3500 3338,3449 3420,3397 3487,3360 3562,3345 3614,3360 3682,3381 3756,3397 3843,3407 2772,3965 4056,3544 4031,3574 3958,3640 3875,3648 3763,3670 3689,3699 3622,3751 3525,3878 3458,3980 3397,4047 3324,4084 3219,4114 3137,4144 3085,4195 2973,4335 3062,4269 3129,4231 3190,4195 3264,4187 3338,4180 3413,4165 3487,4136 3547,4070 3592,4011 3644,3930 3704,3878 3771,3841 3815,3833 3898,3833 3972,3826 4072,3807 3264,4632 4310,3885 4308,3892 4262,3980 4188,4011 4106,4070 4031,4128 3986,4203 3958,4350 3928,4469 3905,4565 3853,4623 3763,4691 3696,4749 3666,4823 3614,4993 3673,4890 3719,4831 3763,4779 3823,4749 3898,4713 3958,4668 4017,4609 4054,4536 4069,4453 4091,4358 4114,4284 4166,4225 4210,4203 4286,4173 4345,4144 4404,4108 4010,5179 4679,4025 4681,4032 4666,4128 4621,4187 4561,4284 4524,4358 4517,4446 4538,4595 4569,4720 4583,4816 4561,4890 4509,4987 4471,5068 4471,5141 4494,5318 4509,5208 4524,5134 4546,5068 4590,5009 4636,4949 4673,4890 4703,4809 4703,4727 4688,4647 4666,4550 4666,4476 4688,4402 4710,4366 4771,4306 4814,4246 4852,4189 4950,5378 5051,4198 5083,4246 5127,4306 5187,4366 5210,4402 5233,4476 5233,4550 5217,4647 5194,4727 5194,4809 5225,4890 5262,4949 5306,5009 5344,5068 5366,5134 5388,5208 5396,5318 5419,5141 5419,5068 5388,4987 5330,4890 5315,4816 5322,4720 5351,4595 5382,4446 5366,4358 5330,4284 5277,4187 5233,4128 5225,4037 5881,5179 5486,4105 5545,4144 5612,4173 5679,4203 5724,4225 5777,4284 5806,4358 5828,4453 5844,4536 5874,4609 5932,4668 5993,4713 6060,4749 6119,4779 6172,4831 6216,4890 6276,4993 6231,4823 6195,4749 6126,4691 6038,4623 5993,4565 5962,4469 5932,4350 5903,4203 5859,4128 5791,4070 5702,4011 5627,3980 5582,3892 5578,3878 6634,4632 5821,3807 5919,3826 5993,3833 6074,3833 6119,3841 6187,3878 6238,3930 6299,4011 6342,4070 6402,4136 6477,4165 6552,4180 6627,4187 6701,4195 6768,4231 6827,4269 6925,4335 6813,4195 6754,4144 6671,4114 6567,4084 6493,4047 6432,3980 6366,3878 6276,3751 6209,3699 6119,3670 6015,3648 5932,3640 5859,3574 5839,3546 7110,3965 6046,3407 6134,3397 6209,3381 6276,3360 6328,3345 6402,3360 6470,3397 6552,3449 6611,3500 6693,3544 6775,3552 6843,3544 6925,3522 6991,3515 7066,3522 7141,3536 7245,3582 7096,3478 7022,3449 Z"/>
         </g>
        </g>
       </g>
       <g class="Group">
        <g class="com.sun.star.drawing.ClosedBezierShape">
         <g id="id6">
          <rect class="BoundingBox" stroke="none" fill="none" x="4301" y="2679" width="523" height="158"/>
          <path fill="rgb(27,25,24)" stroke="none" d="M 4306,2834 L 4306,2834 4307,2835 4309,2835 C 4316,2835 4342,2821 4364,2807 4390,2791 4431,2772 4453,2766 4472,2760 4507,2753 4529,2753 L 4592,2753 C 4605,2753 4631,2760 4649,2766 4663,2770 4674,2774 4678,2776 4680,2779 4685,2784 4703,2796 4718,2807 4750,2818 4775,2820 4781,2820 4787,2821 4793,2821 4822,2821 4822,2814 4822,2811 4822,2805 4805,2779 4793,2763 4781,2744 4764,2722 4759,2722 L 4759,2722 C 4757,2721 4741,2715 4726,2708 L 4714,2703 C 4691,2691 4646,2681 4612,2679 4579,2678 4523,2681 4490,2687 4454,2694 4400,2722 4368,2749 4308,2803 4308,2805 4308,2808 4308,2809 4308,2811 4307,2812 4307,2812 4306,2813 4304,2814 4303,2815 4301,2818 4301,2821 L 4301,2823 C 4300,2827 4301,2832 4306,2834 Z M 4306,2834 L 4306,2834 Z M 4390,2763 L 4390,2763 C 4393,2760 4396,2756 4400,2752 4417,2736 4458,2717 4491,2711 4517,2706 4558,2703 4590,2703 4597,2703 4602,2703 4608,2703 4639,2705 4681,2714 4704,2722 4726,2730 4757,2752 4772,2770 4780,2782 4782,2789 4780,2793 4779,2795 4776,2796 4772,2795 4766,2795 4760,2794 4755,2794 4750,2793 4744,2793 4742,2792 4739,2790 4730,2782 4719,2774 4716,2772 4696,2753 4689,2753 4687,2753 4673,2750 4655,2745 4638,2740 4612,2735 4596,2733 4582,2731 4550,2731 4529,2733 4506,2735 4469,2741 4447,2745 4428,2749 4405,2756 4390,2763 Z"/>
         </g>
        </g>
        <g class="com.sun.star.drawing.ClosedBezierShape">
         <g id="id7">
          <rect class="BoundingBox" stroke="none" fill="none" x="5089" y="2675" width="493" height="154"/>
          <path fill="rgb(27,25,24)" stroke="none" d="M 5099,2815 L 5100,2815 C 5101,2815 5101,2815 5101,2815 L 5102,2815 C 5102,2815 5103,2815 5104,2815 L 5108,2815 5108,2814 C 5112,2814 5120,2813 5140,2811 5148,2810 5156,2809 5162,2808 5170,2807 5177,2807 5178,2807 5185,2807 5201,2790 5204,2786 5214,2777 5236,2765 5253,2761 5270,2757 5294,2754 5306,2754 L 5354,2754 C 5367,2754 5400,2757 5428,2761 5454,2765 5496,2783 5519,2799 5537,2813 5562,2828 5571,2828 5571,2828 5572,2827 5574,2827 5577,2825 5580,2821 5580,2818 5581,2814 5580,2811 5579,2809 5577,2805 5573,2800 5568,2799 5564,2796 5543,2778 5516,2749 5493,2726 5464,2699 5459,2699 5457,2698 5432,2693 5402,2686 5390,2684 5378,2682 5369,2680 5348,2675 5345,2675 5344,2675 L 5288,2675 C 5259,2675 5214,2685 5188,2698 5161,2712 5128,2739 5112,2762 5093,2789 5086,2805 5090,2810 5091,2811 5095,2815 5099,2815 Z M 5099,2815 L 5099,2815 Z M 5291,2698 L 5291,2698 C 5315,2698 5363,2703 5396,2710 5426,2716 5461,2731 5478,2744 5470,2743 5451,2740 5429,2737 5401,2732 5367,2728 5354,2728 L 5306,2728 C 5292,2728 5266,2732 5246,2737 5226,2742 5201,2757 5190,2770 5181,2781 5159,2793 5143,2794 5142,2794 5141,2794 5140,2794 5137,2794 5133,2794 5131,2791 5130,2787 5130,2780 5138,2769 5144,2761 5156,2742 5160,2734 5163,2732 5178,2726 5201,2717 5225,2707 5266,2698 5291,2698 Z"/>
         </g>
        </g>
        <g class="com.sun.star.drawing.ClosedBezierShape">
         <g id="id8">
          <rect class="BoundingBox" stroke="none" fill="none" x="5041" y="2854" width="607" height="272"/>
          <path fill="rgb(27,25,24)" stroke="none" d="M 5615,2941 C 5605,2940 5597,2938 5594,2938 5591,2936 5583,2933 5561,2925 5542,2919 5512,2905 5496,2895 5463,2876 5460,2875 5459,2875 L 5459,2875 C 5455,2875 5412,2867 5370,2860 5347,2856 5319,2854 5290,2854 5262,2854 5237,2856 5220,2860 5185,2868 5132,2889 5101,2907 5072,2924 5045,2940 5042,2942 5037,2948 5049,2963 5058,2971 5058,2972 5078,2992 5084,2992 5085,2992 5088,2992 5106,2983 5111,2980 5116,2978 5119,2976 5120,2976 5121,2975 5122,2975 5123,2979 5127,2987 5130,2999 5134,3015 5150,3043 5166,3064 5182,3083 5193,3099 5194,3100 5194,3103 5194,3107 5244,3120 5257,3122 5275,3124 5296,3124 5317,3124 5337,3122 5354,3120 5370,3117 5384,3114 5396,3112 5408,3110 5418,3108 5419,3108 5426,3108 5444,3089 5446,3087 5458,3076 5469,3057 5473,3046 5476,3036 5485,3014 5493,2999 5500,2985 5511,2978 5519,2978 5520,2978 5520,2978 5521,2978 5530,2981 5542,2984 5545,2984 5547,2984 5572,2980 5596,2976 5608,2974 5646,2967 5646,2956 5646,2945 5619,2941 5615,2941 Z M 5615,2941 L 5615,2941 Z M 5118,2956 L 5118,2956 C 5118,2958 5118,2959 5118,2960 5117,2961 5112,2963 5108,2965 L 5105,2967 C 5099,2970 5088,2966 5080,2960 5080,2959 5079,2958 5079,2955 5081,2948 5093,2935 5116,2924 5143,2910 5191,2893 5227,2883 5242,2879 5265,2877 5292,2877 5319,2877 5346,2879 5368,2883 5417,2892 5468,2907 5484,2917 5516,2937 5520,2937 5522,2937 L 5522,2937 C 5523,2937 5528,2939 5532,2940 5539,2941 5547,2943 5556,2945 5562,2947 5570,2949 5577,2950 5583,2952 5589,2953 5594,2955 5590,2956 5585,2957 5578,2959 5561,2963 5537,2964 5528,2960 5525,2959 5516,2956 5513,2955 5512,2953 5511,2952 5509,2949 5508,2949 5507,2948 5506,2948 5506,2947 5505,2947 5505,2947 L 5505,2944 5505,2944 C 5504,2940 5502,2937 5497,2937 5496,2937 5493,2937 5491,2938 5487,2937 5472,2931 5448,2920 5406,2901 5399,2898 5397,2898 5394,2898 5372,2896 5349,2893 L 5326,2890 C 5312,2889 5293,2892 5267,2900 5265,2900 5264,2900 5263,2900 5254,2900 5251,2902 5250,2905 L 5250,2905 5246,2907 5247,2907 C 5234,2911 5222,2916 5214,2920 5208,2922 5204,2924 5200,2925 5180,2932 5156,2941 5147,2946 5141,2949 5136,2951 5132,2951 5130,2947 5127,2945 5123,2945 5121,2945 5120,2946 5119,2947 5116,2949 5117,2953 5118,2956 Z M 5118,2956 L 5118,2956 Z M 5326,3022 L 5326,3022 5318,3022 C 5314,3022 5310,3025 5307,3028 L 5307,3029 5306,3027 C 5304,3026 5299,3022 5295,3022 5294,3022 5292,3021 5290,3019 5288,3018 5284,3014 5282,3013 5281,3010 5279,3008 5279,3007 5279,3004 5277,2998 5275,2994 5272,2990 5271,2985 5271,2984 5271,2983 5272,2978 5274,2974 5277,2970 5281,2965 5282,2963 5283,2961 5286,2959 5287,2958 5289,2957 5290,2956 5291,2955 L 5292,2954 C 5294,2952 5296,2949 5298,2948 5300,2946 5302,2945 5303,2945 L 5310,2945 C 5311,2945 5313,2946 5315,2948 5318,2950 5323,2953 5326,2953 5326,2957 5329,2960 5334,2960 L 5335,2960 5335,3007 C 5334,3008 5333,3010 5331,3012 5329,3014 5326,3019 5326,3022 Z M 5326,3022 L 5326,3022 Z M 5155,2961 L 5155,2961 C 5166,2956 5187,2949 5202,2946 5208,2944 5215,2943 5219,2943 L 5219,2943 C 5218,2946 5217,2950 5217,2953 L 5217,3000 C 5217,3002 5217,3004 5233,3029 5242,3041 5248,3052 5248,3054 5248,3055 5248,3059 5269,3076 5270,3076 5289,3092 5295,3092 L 5342,3092 C 5367,3092 5399,3086 5415,3079 5421,3076 5425,3075 5427,3075 5427,3076 5426,3077 5426,3077 5421,3083 5418,3086 5416,3088 5414,3087 5412,3087 5411,3087 5402,3087 5379,3091 5353,3096 5336,3099 5317,3101 5297,3101 5278,3101 5261,3099 5249,3096 5226,3090 5195,3069 5180,3051 5165,3032 5150,3005 5145,2991 5141,2979 5145,2965 5155,2961 Z M 5155,2961 L 5155,2961 Z M 5338,3068 L 5338,3068 C 5318,3068 5302,3069 5300,3069 5297,3068 5291,3063 5282,3055 5272,3047 5257,3030 5248,3017 5241,3007 5238,3001 5237,2998 5240,2995 5241,2987 5241,2976 5241,2963 5239,2956 5236,2953 5236,2952 5237,2950 5239,2945 5242,2939 5249,2933 5252,2932 5256,2931 5277,2928 5300,2926 5301,2926 5302,2926 5303,2926 5302,2926 5301,2926 5300,2927 5298,2928 5296,2929 5295,2929 L 5288,2929 C 5283,2929 5277,2934 5276,2935 5275,2936 5273,2937 5271,2937 5268,2937 5264,2939 5262,2941 L 5261,2942 C 5258,2944 5256,2949 5256,2953 L 5256,2967 C 5256,2969 5254,2973 5252,2978 5250,2982 5248,2988 5248,2992 5248,2997 5251,3000 5256,3000 L 5256,3015 C 5256,3019 5258,3023 5261,3025 5262,3026 5263,3028 5265,3029 5266,3031 5267,3032 5268,3033 5271,3036 5276,3039 5279,3039 L 5288,3039 C 5288,3039 5290,3040 5292,3042 5295,3044 5299,3047 5303,3047 L 5310,3047 C 5314,3047 5320,3044 5323,3043 5329,3040 5333,3039 5334,3039 5339,3039 5343,3035 5343,3030 L 5343,3022 C 5343,3022 5343,3021 5347,3012 5348,3009 5351,3004 5352,3003 5354,3001 5357,2997 5357,2992 L 5357,2976 C 5357,2972 5355,2967 5352,2965 5351,2963 5350,2961 5350,2960 5350,2956 5347,2952 5346,2950 5344,2948 5343,2945 5343,2945 5343,2941 5339,2937 5336,2935 5335,2933 5330,2929 5326,2929 L 5318,2929 C 5317,2929 5314,2928 5313,2927 5312,2926 5311,2926 5310,2925 5330,2925 5360,2928 5380,2933 5402,2939 5434,2949 5451,2954 L 5453,2955 C 5467,2960 5476,2965 5478,2967 5477,2969 5475,2973 5473,2978 5469,2986 5465,2996 5460,3006 5449,3027 5446,3037 5445,3041 5441,3043 5428,3049 5412,3055 5392,3062 5358,3068 5338,3068 Z"/>
         </g>
        </g>
        <g class="com.sun.star.drawing.ClosedBezierShape">
         <g id="id9">
          <rect class="BoundingBox" stroke="none" fill="none" x="4222" y="2839" width="617" height="266"/>
          <path fill="rgb(27,25,24)" stroke="none" d="M 4701,3061 C 4712,3047 4723,3027 4726,3013 4729,3002 4736,2984 4741,2975 4745,2966 4750,2961 4752,2959 4754,2960 4759,2963 4764,2965 L 4770,2968 C 4787,2977 4789,2977 4790,2977 4792,2977 4796,2977 4817,2956 4822,2951 4838,2935 4838,2930 4838,2928 4838,2924 4781,2892 4750,2874 4698,2853 4663,2845 4647,2841 4621,2839 4591,2839 4561,2839 4531,2841 4505,2845 4453,2853 4395,2871 4375,2884 4356,2896 4327,2910 4311,2914 4300,2917 4276,2924 4276,2934 4276,2939 4281,2941 4290,2941 4297,2941 4306,2940 4316,2937 4347,2931 4353,2926 4354,2923 4356,2921 4368,2912 4387,2902 4406,2892 4461,2875 4507,2864 4532,2860 4560,2857 4588,2857 4615,2857 4639,2859 4655,2864 4688,2875 4738,2895 4767,2909 4790,2921 4802,2934 4803,2940 4804,2942 4803,2943 4803,2943 4796,2950 4784,2952 4779,2948 4773,2943 4762,2936 4758,2936 4756,2935 4754,2934 4752,2933 L 4751,2933 C 4748,2931 4739,2926 4694,2907 4666,2895 4610,2880 4570,2876 4532,2871 4497,2868 4494,2868 4490,2868 4483,2879 4477,2888 4473,2897 4464,2906 4456,2909 4449,2912 4422,2920 4397,2929 L 4394,2930 C 4371,2937 4354,2942 4347,2942 4345,2939 4340,2939 4336,2942 4334,2944 4332,2947 4332,2950 4327,2950 4307,2947 4278,2940 4261,2937 4245,2935 4235,2935 4230,2935 4222,2935 4222,2941 4222,2951 4255,2957 4276,2960 4295,2963 4327,2968 4330,2968 4332,2968 4334,2968 4335,2968 4336,2968 4336,2968 4337,2968 4339,2972 4346,2984 4354,3001 4371,3039 4376,3039 4377,3039 4379,3040 4390,3047 4414,3065 4434,3080 4475,3096 4509,3101 4525,3103 4546,3104 4567,3104 4588,3104 4606,3103 4620,3101 4625,3100 4671,3092 4676,3087 4678,3086 4684,3080 4696,3066 L 4701,3061 Z M 4701,3061 L 4701,3061 Z M 4669,3061 L 4669,3061 C 4667,3063 4666,3064 4665,3065 4663,3067 4662,3068 4661,3070 4658,3070 4649,3072 4639,3073 4645,3071 4653,3068 4660,3065 4664,3063 4666,3062 4669,3061 Z M 4669,3061 L 4669,3061 Z M 4468,3013 L 4468,3013 4472,3018 C 4482,3031 4486,3038 4486,3039 4486,3045 4506,3060 4507,3060 4512,3065 4528,3077 4533,3077 L 4618,3077 C 4617,3077 4617,3077 4616,3077 4604,3079 4586,3080 4567,3080 4546,3080 4526,3079 4510,3077 4484,3073 4463,3070 4458,3069 4454,3066 4446,3060 4426,3046 4407,3033 4384,3009 4375,2991 4371,2986 4371,2979 4373,2973 4377,2962 4388,2954 4403,2950 L 4405,2950 C 4434,2943 4448,2939 4455,2937 L 4455,2938 4455,2993 C 4455,2996 4457,2999 4468,3013 Z M 4468,3013 L 4468,3013 Z M 4625,3058 L 4625,3058 C 4621,3055 4609,3053 4580,3053 4554,3053 4542,3055 4537,3057 4535,3055 4531,3051 4524,3043 4516,3033 4501,3015 4489,3001 4479,2989 4471,2970 4471,2961 4471,2950 4473,2939 4475,2935 4477,2932 4491,2924 4507,2918 4508,2917 4510,2917 4512,2916 4510,2916 4509,2917 4506,2919 4504,2922 4501,2927 4501,2930 4501,2931 4500,2934 4499,2935 4497,2937 4494,2941 4494,2945 L 4494,2953 C 4494,2953 4493,2955 4491,2958 L 4490,2959 C 4488,2963 4486,2965 4486,2968 4486,2969 4487,2973 4489,2977 4489,2978 4490,2980 4491,2983 4493,2986 4494,2991 4494,2993 4494,2995 4495,2999 4498,3005 4500,3010 4504,3014 4506,3017 L 4507,3018 C 4510,3021 4513,3023 4517,3023 4518,3023 4523,3025 4527,3026 4531,3028 4538,3030 4542,3030 L 4550,3030 C 4553,3030 4558,3028 4560,3025 4561,3025 4564,3023 4565,3023 L 4573,3023 C 4577,3023 4581,3021 4583,3018 4586,3015 4588,3010 4588,3004 4588,3002 4589,3000 4588,3000 4592,3000 4596,2997 4596,2993 L 4596,2985 C 4596,2984 4597,2981 4599,2980 4601,2977 4604,2972 4604,2968 4604,2964 4601,2960 4599,2957 4597,2955 4596,2953 4596,2953 L 4596,2945 C 4596,2941 4591,2937 4588,2937 4587,2937 4586,2937 4585,2936 4585,2935 4586,2935 4586,2934 4586,2932 4586,2930 4583,2927 4582,2926 4581,2923 4581,2922 4581,2917 4574,2914 4569,2914 L 4558,2914 C 4557,2914 4554,2913 4553,2911 4552,2911 4551,2911 4550,2910 4559,2910 4568,2909 4576,2910 4600,2912 4613,2913 4614,2914 L 4614,2913 C 4619,2916 4631,2919 4661,2926 4689,2933 4712,2940 4717,2943 4721,2944 4723,2951 4722,2957 4720,2963 4714,2981 4705,3002 4699,3015 4694,3023 4692,3026 4686,3026 4667,3036 4656,3042 4639,3052 4628,3057 4625,3058 Z M 4625,3058 L 4625,3058 Z M 4525,3007 L 4525,3007 C 4524,3007 4522,3006 4520,3004 4518,3003 4517,3001 4517,3000 L 4517,2985 C 4517,2982 4516,2977 4514,2973 4513,2972 4513,2970 4513,2970 4516,2967 4517,2961 4517,2956 L 4517,2945 C 4517,2944 4518,2942 4520,2941 L 4521,2940 C 4522,2939 4524,2938 4525,2938 L 4533,2938 C 4535,2938 4540,2937 4545,2935 4546,2935 4547,2934 4548,2934 4551,2937 4555,2938 4558,2938 L 4565,2938 C 4565,2941 4567,2946 4570,2948 4571,2949 4573,2953 4573,2956 4573,2958 4573,2966 4576,2969 4576,2970 4576,2972 4576,2974 4574,2977 4573,2982 4573,2985 L 4573,2993 C 4573,2993 4572,2995 4570,2998 4568,2999 4565,3003 4565,3007 L 4525,3007 Z M 4525,3007 L 4525,3007 Z M 4528,2914 L 4528,2914 C 4524,2914 4519,2915 4516,2918 4515,2917 4514,2916 4512,2916 4519,2914 4528,2912 4538,2911 4537,2912 4533,2914 4528,2914 Z"/>
         </g>
        </g>
        <g class="com.sun.star.drawing.ClosedBezierShape">
         <g id="id10">
          <rect class="BoundingBox" stroke="none" fill="none" x="4783" y="3293" width="319" height="119"/>
          <path fill="rgb(27,25,24)" stroke="none" d="M 4819,3369 C 4817,3369 4816,3368 4815,3368 4811,3367 4806,3358 4806,3349 4806,3338 4807,3323 4809,3313 4810,3309 4813,3299 4810,3295 4809,3293 4807,3293 4805,3293 L 4798,3293 C 4793,3293 4790,3297 4786,3311 4784,3320 4783,3337 4783,3347 4783,3351 4783,3369 4788,3374 4791,3377 4800,3380 4809,3383 4818,3386 4827,3387 4830,3387 4834,3387 4842,3382 4846,3378 4858,3371 4862,3371 4863,3371 4866,3371 4877,3377 4888,3390 4902,3403 4911,3410 4915,3410 L 4941,3410 C 4957,3410 4975,3407 4984,3402 4992,3398 5008,3388 5017,3379 5026,3371 5033,3368 5035,3367 5039,3369 5046,3372 5053,3375 L 5055,3376 C 5064,3378 5068,3379 5070,3379 5074,3379 5082,3375 5088,3370 5088,3370 5101,3361 5101,3355 L 5101,3324 C 5101,3318 5100,3293 5089,3293 5081,3293 5076,3306 5076,3320 5076,3333 5072,3347 5069,3351 5064,3356 5059,3358 5057,3358 5055,3357 5047,3353 5039,3351 5031,3349 5016,3355 5005,3364 4995,3372 4980,3383 4972,3387 4964,3392 4951,3395 4941,3395 4935,3395 4917,3386 4905,3375 4892,3365 4875,3355 4863,3355 4855,3355 4842,3359 4834,3364 4831,3367 4824,3369 4819,3369 Z"/>
         </g>
        </g>
        <g class="com.sun.star.drawing.ClosedBezierShape">
         <g id="id11">
          <rect class="BoundingBox" stroke="none" fill="none" x="4681" y="3527" width="546" height="205"/>
          <path fill="rgb(27,25,24)" stroke="none" d="M 5164,3570 C 5133,3562 5087,3548 5063,3539 5044,3532 5020,3527 5006,3527 5004,3527 5002,3527 5000,3527 4989,3530 4979,3531 4978,3531 4972,3531 4952,3548 4949,3550 4939,3558 4923,3560 4915,3554 4910,3549 4897,3540 4893,3540 L 4852,3540 C 4851,3540 4849,3540 4843,3541 4840,3542 4836,3542 4832,3543 4827,3545 4814,3548 4800,3552 4790,3555 4777,3559 4766,3562 4729,3574 4707,3580 4700,3582 4691,3583 4681,3590 4681,3597 4681,3608 4707,3609 4712,3609 4722,3609 4733,3609 4741,3610 4746,3610 4749,3610 4751,3610 4755,3610 4764,3618 4771,3631 4777,3644 4792,3665 4803,3678 4805,3681 4808,3684 4812,3687 4816,3696 4822,3706 4827,3715 L 4831,3713 4848,3713 4864,3717 4868,3718 C 4888,3726 4920,3731 4944,3731 4948,3731 4951,3731 4955,3731 4971,3729 4992,3723 5008,3717 L 5019,3713 C 5031,3713 5031,3713 5031,3713 L 5034,3716 C 5040,3707 5045,3700 5051,3692 5062,3684 5072,3676 5077,3671 5085,3662 5100,3644 5107,3631 5114,3619 5132,3609 5147,3609 5163,3609 5186,3608 5200,3606 5226,3600 5226,3596 5226,3593 5226,3591 5226,3585 5164,3570 Z M 5164,3570 L 5164,3570 Z M 5026,3700 L 5026,3700 C 5021,3703 5014,3706 5006,3709 L 4867,3709 C 4851,3703 4832,3692 4820,3682 4804,3647 4803,3625 4808,3618 4810,3615 4813,3614 4818,3614 L 4818,3614 C 4843,3615 4874,3620 4887,3624 4901,3628 4918,3633 4928,3633 L 4947,3633 C 4949,3633 4951,3632 4958,3630 4963,3628 4969,3626 4975,3624 4988,3620 5017,3615 5040,3613 5059,3611 5080,3609 5091,3609 5087,3618 5073,3645 5045,3686 5038,3691 5032,3696 5026,3700 Z M 5026,3700 L 5026,3700 Z M 4969,3601 L 4969,3601 C 4955,3605 4935,3609 4928,3609 4919,3609 4902,3605 4889,3601 4876,3598 4837,3592 4802,3589 4785,3588 4769,3587 4757,3586 4764,3584 4771,3581 4780,3578 4799,3570 4827,3561 4838,3559 4844,3557 4851,3557 4853,3557 4856,3562 4869,3563 4874,3563 4877,3563 4883,3563 4886,3560 4891,3563 4897,3567 4901,3570 4917,3580 4927,3585 4931,3585 4935,3585 4954,3571 4960,3565 4970,3558 4977,3553 4979,3551 4982,3553 4990,3553 4999,3551 5008,3550 5033,3555 5055,3563 5068,3568 5101,3579 5109,3580 5110,3580 5111,3581 5112,3581 5109,3583 5104,3585 5099,3585 5091,3585 5070,3586 5039,3589 5015,3592 4983,3598 4969,3601 Z"/>
         </g>
        </g>
       </g>
       <g class="com.sun.star.drawing.PolyPolygonShape">
        <g id="id12">
         <rect class="BoundingBox" stroke="none" fill="none" x="2308" y="8507" width="5299" height="69"/>
         <g>
          <defs>
           <linearGradient id="gradient3" x1="2308" y1="8541" x2="7606" y2="8541" gradientUnits="userSpaceOnUse">
            <stop offset="0" style="stop-color:rgb(255,219,13)"/>
            <stop offset="1" style="stop-color:rgb(255,255,255)"/>
           </linearGradient>
          </defs>
          <path style="fill:url(#gradient3)" d="M 2308,8507 L 7606,8507 7606,8575 2308,8575 2308,8507 Z"/>
         </g>
        </g>
       </g>
       <g class="com.sun.star.drawing.ClosedBezierShape">
        <g id="id13">
         <rect class="BoundingBox" stroke="none" fill="none" x="400" y="6469" width="9218" height="879"/>
         <path fill="#fff"  stroke="none" d="M 400,7086 L 491,6993 C 513,7019 533,7038 552,7049 571,7060 591,7066 613,7066 639,7066 659,7059 674,7044 690,7030 697,7011 697,6986 697,6953 664,6924 599,6900 590,6896 584,6894 580,6892 518,6869 475,6843 449,6813 424,6784 411,6746 411,6701 411,6641 431,6592 472,6553 513,6514 565,6495 627,6495 669,6495 706,6502 740,6518 773,6533 802,6557 827,6589 L 741,6679 C 722,6658 704,6643 686,6633 667,6624 648,6619 629,6619 605,6619 586,6626 571,6639 556,6653 549,6670 549,6693 549,6724 580,6750 642,6772 664,6779 681,6786 693,6790 741,6809 777,6835 801,6867 825,6900 837,6940 837,6987 837,7047 816,7097 775,7136 734,7175 681,7194 615,7194 570,7194 529,7185 493,7168 458,7150 426,7122 400,7086 Z M 400,7086 L 400,7086 Z M 997,6931 L 997,6931 C 997,6972 1010,7006 1037,7034 1064,7062 1097,7076 1137,7076 1175,7076 1208,7061 1236,7033 1264,7005 1277,6970 1277,6931 1277,6889 1264,6855 1237,6828 1211,6801 1177,6787 1137,6787 1097,6787 1064,6801 1037,6828 1010,6855 997,6890 997,6931 Z M 997,6931 L 997,6931 Z M 872,6931 L 872,6931 C 872,6896 878,6862 891,6831 905,6800 924,6773 950,6748 974,6724 1003,6706 1035,6693 1067,6680 1101,6674 1136,6674 1172,6674 1206,6680 1239,6694 1271,6706 1300,6725 1325,6749 1351,6773 1370,6801 1383,6832 1396,6862 1403,6896 1403,6931 1403,6966 1396,7000 1383,7031 1370,7062 1351,7090 1325,7114 1301,7138 1272,7156 1240,7169 1207,7182 1172,7188 1136,7188 1100,7188 1066,7182 1035,7170 1003,7157 975,7139 950,7114 924,7089 905,7061 892,7030 878,6998 872,6966 872,6931 Z M 872,6931 L 872,6931 Z M 1871,7125 L 1871,7125 C 1844,7147 1816,7163 1786,7173 1757,7183 1725,7188 1692,7188 1617,7188 1555,7164 1506,7114 1457,7065 1432,7004 1432,6931 1432,6896 1439,6862 1452,6831 1465,6799 1485,6771 1510,6747 1534,6724 1561,6706 1592,6693 1623,6680 1656,6674 1692,6674 1725,6674 1757,6679 1787,6689 1816,6699 1844,6713 1871,6733 L 1805,6827 C 1786,6813 1768,6803 1751,6797 1733,6791 1716,6787 1697,6787 1655,6787 1621,6801 1595,6827 1570,6853 1557,6888 1557,6931 1557,6972 1570,7005 1597,7032 1624,7058 1657,7072 1698,7072 1714,7072 1731,7069 1748,7062 1765,7056 1784,7047 1806,7033 L 1871,7125 Z M 1871,7125 L 1871,7125 Z M 1982,6634 L 1982,6634 1900,6550 1982,6469 2066,6550 1982,6634 Z M 1982,6634 L 1982,6634 Z M 1918,7185 L 1918,7185 1918,6685 2043,6678 2043,7178 1918,7185 Z M 1918,7185 L 1918,7185 Z M 2580,7122 L 2580,7122 C 2546,7144 2512,7161 2478,7172 2443,7183 2407,7188 2370,7188 2334,7188 2300,7182 2268,7170 2237,7157 2209,7139 2184,7114 2158,7089 2139,7062 2126,7030 2112,6999 2105,6966 2105,6931 2105,6895 2112,6862 2125,6831 2138,6801 2158,6773 2184,6748 2209,6723 2237,6705 2267,6693 2298,6680 2332,6674 2370,6674 2422,6674 2468,6686 2509,6712 2549,6737 2583,6774 2609,6822 L 2267,7034 C 2282,7048 2299,7058 2317,7065 2335,7072 2355,7076 2377,7076 2398,7076 2422,7071 2447,7062 2471,7053 2499,7038 2530,7019 L 2580,7122 Z M 2580,7122 L 2580,7122 Z M 2227,6948 L 2227,6948 2449,6812 C 2440,6801 2428,6792 2414,6787 2401,6781 2385,6779 2369,6779 2328,6779 2294,6793 2267,6821 2240,6849 2226,6884 2226,6926 2226,6932 2226,6937 2226,6940 2226,6943 2227,6946 2227,6948 Z M 2227,6948 L 2227,6948 Z M 2742,6932 L 2742,6932 C 2742,6974 2756,7009 2781,7036 2807,7062 2840,7076 2881,7076 2921,7076 2954,7062 2981,7035 3007,7008 3020,6974 3020,6932 3020,6891 3007,6856 2980,6829 2954,6801 2921,6787 2881,6787 2843,6787 2810,6802 2783,6830 2756,6858 2742,6892 2742,6932 Z M 2742,6932 L 2742,6932 Z M 3031,7113 L 3031,7113 C 3010,7139 2986,7158 2959,7170 2932,7181 2901,7187 2865,7187 2832,7187 2801,7182 2773,7171 2746,7160 2720,7143 2695,7119 2670,7095 2650,7067 2637,7035 2624,7003 2617,6968 2617,6931 2617,6895 2624,6860 2637,6828 2651,6796 2670,6768 2695,6743 2720,6720 2746,6703 2774,6693 2802,6681 2834,6676 2871,6676 2902,6676 2929,6681 2954,6692 2978,6702 3000,6718 3020,6739 L 3020,6503 3143,6495 3143,7178 3031,7185 3031,7113 Z M 3031,7113 L 3031,7113 Z M 3320,7011 L 3320,7011 C 3320,7034 3328,7051 3343,7064 3359,7077 3381,7083 3409,7083 3436,7083 3457,7077 3473,7065 3488,7052 3496,7035 3496,7013 3496,6991 3488,6973 3473,6960 3458,6947 3437,6941 3410,6941 3382,6941 3359,6947 3344,6959 3328,6972 3320,6989 3320,7011 Z M 3320,7011 L 3320,7011 Z M 3504,7188 L 3504,7188 3504,7138 C 3488,7155 3470,7168 3448,7176 3427,7184 3403,7188 3376,7188 3324,7188 3281,7172 3248,7140 3214,7106 3198,7065 3198,7015 3198,6964 3214,6924 3247,6893 3281,6862 3325,6847 3380,6847 3403,6847 3424,6850 3444,6856 3463,6862 3480,6871 3496,6882 L 3496,6841 C 3496,6820 3488,6804 3472,6794 3456,6784 3431,6779 3398,6779 3371,6779 3345,6781 3321,6786 3297,6791 3276,6798 3256,6808 L 3284,6689 C 3311,6683 3336,6679 3359,6676 3382,6673 3403,6672 3423,6672 3488,6672 3536,6685 3566,6712 3597,6738 3612,6779 3612,6835 L 3612,7178 3504,7188 Z M 3504,7188 L 3504,7188 Z M 3788,6932 L 3788,6932 C 3788,6974 3801,7009 3827,7036 3853,7062 3886,7076 3927,7076 3967,7076 4000,7062 4026,7035 4053,7008 4066,6974 4066,6932 4066,6891 4053,6856 4026,6829 4000,6801 3967,6787 3927,6787 3889,6787 3856,6802 3829,6830 3802,6858 3788,6892 3788,6932 Z M 3788,6932 L 3788,6932 Z M 4076,7113 L 4076,7113 C 4055,7139 4032,7158 4005,7170 3978,7181 3947,7187 3911,7187 3877,7187 3847,7182 3819,7171 3792,7160 3766,7143 3742,7119 3717,7095 3697,7067 3684,7035 3671,7003 3664,6968 3664,6931 3664,6895 3671,6860 3684,6828 3697,6796 3717,6768 3742,6743 3766,6720 3792,6703 3820,6693 3848,6681 3880,6676 3917,6676 3947,6676 3975,6681 3999,6692 4024,6702 4046,6718 4066,6739 L 4066,6503 4189,6495 4189,7178 4076,7185 4076,7113 Z M 4076,7113 L 4076,7113 Z M 4990,7163 L 4990,7163 C 4971,7173 4951,7180 4929,7185 4906,7190 4883,7192 4858,7192 4825,7192 4793,7187 4763,7178 4733,7169 4705,7155 4679,7137 4629,7102 4591,7060 4564,7010 4538,6960 4524,6904 4524,6844 4524,6796 4533,6752 4550,6710 4567,6667 4592,6630 4625,6596 4658,6563 4695,6539 4735,6522 4775,6505 4817,6496 4862,6496 4884,6496 4905,6498 4925,6502 4945,6506 4964,6511 4982,6519 L 5002,6661 C 4980,6646 4957,6634 4935,6627 4912,6620 4888,6616 4864,6616 4807,6616 4759,6638 4718,6682 4678,6727 4658,6780 4658,6844 4658,6909 4678,6963 4718,7006 4759,7050 4808,7072 4866,7072 4889,7072 4912,7067 4935,7058 4957,7050 4981,7036 5006,7017 L 4990,7163 Z M 4990,7163 L 4990,7163 Z M 5166,6931 L 5166,6931 C 5166,6972 5179,7006 5206,7034 5233,7062 5266,7076 5306,7076 5344,7076 5377,7061 5405,7033 5432,7005 5446,6970 5446,6931 5446,6889 5433,6855 5406,6828 5380,6801 5346,6787 5306,6787 5266,6787 5233,6801 5206,6828 5179,6855 5166,6890 5166,6931 Z M 5166,6931 L 5166,6931 Z M 5041,6931 L 5041,6931 C 5041,6896 5047,6862 5060,6831 5074,6800 5093,6773 5119,6748 5143,6724 5172,6706 5204,6693 5236,6680 5270,6674 5305,6674 5341,6674 5375,6680 5408,6694 5440,6706 5469,6725 5494,6749 5519,6773 5539,6801 5552,6832 5565,6862 5572,6896 5572,6931 5572,6966 5565,7000 5552,7031 5539,7062 5519,7090 5494,7114 5470,7138 5441,7156 5409,7169 5376,7182 5341,7188 5305,7188 5269,7188 5235,7182 5204,7170 5172,7157 5144,7139 5119,7114 5093,7089 5074,7061 5061,7030 5047,6998 5041,6966 5041,6931 Z M 5041,6931 L 5041,6931 Z M 5596,7112 L 5596,7112 5671,7035 C 5687,7052 5704,7065 5722,7074 5740,7082 5759,7086 5779,7086 5801,7086 5818,7082 5831,7073 5843,7064 5849,7052 5849,7036 5849,7016 5827,6999 5784,6986 5768,6981 5755,6978 5746,6974 5698,6958 5664,6939 5643,6915 5622,6892 5611,6862 5611,6826 5611,6781 5628,6744 5662,6716 5695,6686 5739,6672 5793,6672 5826,6672 5857,6678 5887,6693 5916,6706 5944,6726 5971,6754 L 5888,6820 C 5873,6804 5858,6792 5844,6784 5829,6776 5813,6772 5797,6772 5780,6772 5766,6776 5756,6784 5746,6792 5740,6803 5740,6817 5740,6831 5747,6843 5759,6851 5772,6860 5800,6871 5843,6884 5893,6899 5928,6918 5948,6940 5969,6961 5979,6991 5979,7028 5979,7077 5962,7116 5926,7147 5891,7177 5844,7192 5785,7192 5749,7192 5715,7186 5683,7172 5651,7159 5622,7139 5596,7112 Z M 5596,7112 L 5596,7112 Z M 6037,7185 L 6037,7185 6037,6685 6150,6678 6150,6750 C 6169,6724 6190,6705 6213,6692 6236,6679 6262,6673 6291,6673 6321,6673 6347,6680 6369,6695 6391,6709 6407,6728 6417,6754 6439,6726 6461,6706 6484,6693 6508,6679 6534,6673 6563,6673 6609,6673 6644,6689 6669,6720 6693,6751 6705,6796 6705,6856 L 6705,7178 6582,7185 6582,6871 C 6582,6840 6577,6818 6567,6804 6557,6790 6541,6783 6519,6783 6490,6783 6468,6793 6453,6813 6439,6833 6431,6863 6431,6902 L 6431,7178 6311,7185 6311,6871 C 6311,6840 6306,6817 6296,6803 6286,6790 6270,6783 6248,6783 6219,6783 6197,6793 6182,6813 6167,6833 6159,6863 6159,6902 L 6159,7178 6037,7185 Z M 6037,7185 L 6037,7185 Z M 6881,6931 L 6881,6931 C 6881,6972 6895,7006 6922,7034 6948,7062 6982,7076 7021,7076 7060,7076 7093,7061 7120,7033 7148,7005 7162,6970 7162,6931 7162,6889 7148,6855 7122,6828 7095,6801 7062,6787 7021,6787 6982,6787 6948,6801 6922,6828 6895,6855 6881,6890 6881,6931 Z M 6881,6931 L 6881,6931 Z M 6756,6931 L 6756,6931 C 6756,6896 6763,6862 6776,6831 6789,6800 6808,6773 6834,6748 6859,6724 6887,6706 6919,6693 6951,6680 6985,6674 7021,6674 7057,6674 7091,6680 7123,6694 7156,6706 7185,6725 7210,6749 7235,6773 7254,6801 7267,6832 7280,6862 7287,6896 7287,6931 7287,6966 7280,7000 7267,7031 7254,7062 7235,7090 7210,7114 7186,7138 7157,7156 7124,7169 7091,7182 7057,7188 7021,7188 6984,7188 6951,7182 6919,7170 6887,7157 6859,7139 6834,7114 6809,7089 6789,7061 6776,7030 6763,6998 6756,6966 6756,6931 Z M 6756,6931 L 6756,6931 Z M 7465,6931 L 7465,6931 C 7465,6972 7478,7007 7504,7034 7531,7062 7564,7076 7603,7076 7642,7076 7674,7061 7701,7033 7729,7005 7742,6971 7742,6931 7742,6889 7729,6854 7704,6827 7678,6801 7644,6787 7603,6787 7563,6787 7530,6801 7504,6828 7478,6855 7465,6889 7465,6931 Z M 7465,6931 L 7465,6931 Z M 7341,7347 L 7341,7347 7341,6685 7455,6678 7455,6750 C 7476,6725 7500,6707 7528,6695 7556,6682 7588,6676 7623,6676 7691,6676 7749,6701 7796,6750 7843,6799 7866,6859 7866,6931 7866,6968 7860,7002 7847,7034 7833,7066 7814,7094 7789,7119 7765,7143 7739,7160 7712,7171 7685,7182 7655,7187 7623,7187 7590,7187 7560,7182 7533,7172 7507,7161 7484,7146 7465,7124 L 7465,7339 7341,7347 Z M 7341,7347 L 7341,7347 Z M 8022,6931 L 8022,6931 C 8022,6972 8035,7006 8062,7034 8089,7062 8122,7076 8161,7076 8200,7076 8233,7061 8261,7033 8288,7005 8302,6970 8302,6931 8302,6889 8289,6855 8262,6828 8235,6801 8202,6787 8161,6787 8122,6787 8089,6801 8062,6828 8035,6855 8022,6890 8022,6931 Z M 8022,6931 L 8022,6931 Z M 7897,6931 L 7897,6931 C 7897,6896 7903,6862 7916,6831 7929,6800 7949,6773 7975,6748 7999,6724 8028,6706 8060,6693 8092,6680 8125,6674 8161,6674 8197,6674 8231,6680 8263,6694 8296,6706 8325,6725 8350,6749 8375,6773 8394,6801 8408,6832 8421,6862 8427,6896 8427,6931 8427,6966 8421,7000 8408,7031 8394,7062 8375,7090 8350,7114 8326,7138 8297,7156 8264,7169 8232,7182 8197,7188 8161,7188 8125,7188 8091,7182 8060,7170 8028,7157 8000,7139 7975,7114 7949,7089 7930,7061 7916,7030 7903,6998 7897,6966 7897,6931 Z M 7897,6931 L 7897,6931 Z M 8490,7185 L 8490,7185 8490,6503 8614,6495 8614,7178 8490,7185 Z M 8490,7185 L 8490,7185 Z M 8773,6634 L 8773,6634 8691,6550 8773,6469 8857,6550 8773,6634 Z M 8773,6634 L 8773,6634 Z M 8709,7185 L 8709,7185 8709,6685 8834,6678 8834,7178 8709,7185 Z M 8709,7185 L 8709,7185 Z M 9174,7188 L 9174,7188 C 9172,7188 9169,7188 9165,7189 9148,7190 9137,7190 9132,7190 9067,7190 9020,7173 8990,7140 8960,7106 8945,7053 8945,6980 L 8945,6793 8867,6793 8897,6685 8945,6685 8945,6605 9067,6546 9067,6685 9181,6685 9181,6793 9067,6793 9067,6981 C 9067,7019 9073,7045 9086,7058 9099,7072 9123,7078 9157,7078 9167,7078 9176,7078 9183,7078 9191,7078 9198,7078 9205,7077 L 9174,7188 Z M 9174,7188 L 9174,7188 Z M 9325,7011 L 9325,7011 C 9325,7034 9333,7051 9349,7064 9365,7077 9386,7083 9414,7083 9441,7083 9463,7077 9478,7065 9494,7052 9502,7035 9502,7013 9502,6991 9494,6973 9479,6960 9463,6947 9442,6941 9415,6941 9387,6941 9365,6947 9349,6959 9333,6972 9325,6989 9325,7011 Z M 9325,7011 L 9325,7011 Z M 9509,7188 L 9509,7188 9617,7178 9617,6835 C 9617,6779 9602,6738 9572,6712 9541,6685 9493,6672 9428,6672 9409,6672 9388,6673 9365,6676 9342,6679 9317,6683 9290,6689 L 9262,6808 C 9281,6798 9303,6791 9327,6786 9351,6781 9376,6779 9403,6779 9437,6779 9461,6784 9477,6794 9494,6804 9502,6820 9502,6841 L 9502,6882 C 9486,6871 9468,6862 9449,6856 9430,6850 9408,6847 9385,6847 9330,6847 9286,6862 9253,6893 9220,6924 9203,6964 9203,7015 9203,7065 9220,7106 9253,7140 9286,7172 9329,7188 9381,7188 9408,7188 9432,7184 9454,7176 9475,7168 9494,7155 9509,7138 L 9509,7188 Z"/>
        </g>
       </g>
       <g class="com.sun.star.drawing.ClosedBezierShape">
        <g id="id14">
         <rect class="BoundingBox" stroke="none" fill="none" x="914" y="7346" width="8212" height="702"/>
         <path fill="#fff"  stroke="none" d="M 1038,7786 C 1038,7828 1051,7863 1077,7889 1102,7916 1136,7929 1176,7929 1217,7929 1250,7916 1276,7889 1302,7862 1315,7828 1315,7786 1315,7744 1302,7710 1276,7681 1249,7654 1216,7640 1176,7640 1138,7640 1106,7654 1078,7683 1051,7712 1038,7746 1038,7786 Z M 1038,7786 L 1038,7786 Z M 1326,7967 L 1326,7967 C 1305,7992 1281,8011 1254,8023 1228,8034 1197,8040 1161,8040 1127,8040 1096,8035 1069,8024 1041,8013 1015,7996 991,7973 966,7949 947,7921 933,7889 920,7857 914,7822 914,7785 914,7748 920,7714 934,7681 947,7649 966,7620 991,7596 1015,7573 1041,7556 1069,7546 1097,7535 1129,7529 1166,7529 1197,7529 1224,7535 1249,7545 1273,7555 1295,7571 1315,7592 L 1315,7357 1439,7349 1439,8031 1326,8038 1326,7967 Z M 1326,7967 L 1326,7967 Z M 1967,7975 L 1967,7975 C 1933,7997 1899,8014 1865,8025 1830,8036 1795,8041 1758,8041 1721,8041 1687,8035 1656,8023 1624,8010 1596,7992 1571,7968 1545,7943 1526,7916 1513,7884 1500,7853 1493,7820 1493,7785 1493,7749 1499,7716 1512,7684 1525,7653 1545,7626 1571,7601 1596,7576 1624,7558 1655,7546 1685,7534 1720,7528 1758,7528 1809,7528 1855,7540 1896,7565 1937,7590 1970,7627 1997,7675 L 1655,7888 C 1669,7902 1686,7912 1704,7919 1722,7926 1742,7929 1764,7929 1786,7929 1809,7925 1834,7916 1859,7907 1886,7892 1918,7873 L 1967,7975 Z M 1967,7975 L 1967,7975 Z M 1614,7802 L 1614,7802 1837,7665 C 1827,7654 1815,7645 1802,7640 1788,7634 1773,7632 1756,7632 1715,7632 1681,7646 1654,7674 1627,7702 1613,7738 1613,7780 1613,7786 1613,7791 1614,7794 1614,7797 1614,7799 1614,7802 Z M 1614,7802 L 1614,7802 Z M 2282,7940 L 2282,7940 2373,7847 C 2395,7873 2415,7891 2434,7903 2453,7914 2473,7920 2495,7920 2521,7920 2541,7912 2557,7898 2572,7884 2579,7865 2579,7840 2579,7807 2546,7778 2481,7753 2473,7750 2466,7748 2462,7746 2401,7723 2357,7695 2332,7666 2306,7637 2293,7599 2293,7553 2293,7495 2314,7446 2355,7407 2396,7368 2447,7348 2509,7348 2551,7348 2589,7356 2622,7372 2655,7387 2684,7411 2709,7443 L 2623,7532 C 2604,7512 2586,7497 2568,7487 2549,7477 2531,7473 2511,7473 2487,7473 2468,7479 2453,7493 2438,7506 2431,7524 2431,7546 2431,7577 2462,7603 2524,7625 2546,7632 2563,7638 2576,7643 2623,7662 2659,7687 2683,7721 2707,7754 2719,7794 2719,7841 2719,7901 2699,7951 2657,7989 2616,8028 2563,8047 2497,8047 2452,8047 2411,8038 2375,8021 2340,8003 2309,7976 2282,7940 Z M 2282,7940 L 2282,7940 Z M 2879,7785 L 2879,7785 C 2879,7826 2892,7860 2919,7888 2946,7916 2980,7929 3020,7929 3058,7929 3091,7915 3119,7887 3147,7858 3160,7824 3160,7785 3160,7743 3147,7709 3121,7681 3094,7654 3060,7640 3020,7640 2980,7640 2946,7654 2919,7681 2892,7709 2879,7743 2879,7785 Z M 2879,7785 L 2879,7785 Z M 2754,7785 L 2754,7785 C 2754,7749 2760,7716 2774,7684 2787,7653 2806,7625 2832,7601 2857,7577 2885,7559 2917,7546 2949,7534 2984,7528 3020,7528 3055,7528 3089,7534 3122,7547 3154,7559 3183,7578 3209,7602 3234,7626 3253,7653 3266,7684 3279,7716 3286,7749 3286,7785 3286,7820 3279,7854 3266,7885 3253,7916 3234,7944 3209,7968 3184,7991 3156,8009 3123,8022 3090,8035 3056,8041 3020,8041 2983,8041 2948,8035 2917,8023 2885,8010 2857,7992 2832,7968 2807,7943 2787,7915 2774,7884 2760,7852 2754,7819 2754,7785 Z M 2754,7785 L 2754,7785 Z M 3754,7979 L 3754,7979 C 3727,8000 3699,8016 3669,8026 3640,8036 3608,8041 3575,8041 3500,8041 3438,8017 3389,7968 3340,7918 3315,7858 3315,7785 3315,7750 3322,7716 3335,7684 3349,7652 3368,7624 3393,7600 3417,7577 3444,7559 3475,7546 3506,7534 3540,7528 3575,7528 3609,7528 3640,7532 3670,7542 3699,7552 3728,7566 3754,7585 L 3688,7680 C 3669,7666 3651,7656 3634,7650 3617,7644 3599,7640 3580,7640 3538,7640 3504,7653 3479,7680 3453,7707 3440,7742 3440,7785 3440,7826 3454,7859 3480,7886 3507,7912 3540,7926 3581,7926 3597,7926 3614,7922 3631,7916 3648,7910 3667,7900 3689,7887 L 3754,7979 Z M 3754,7979 L 3754,7979 Z M 3894,7785 L 3894,7785 C 3894,7826 3907,7860 3934,7888 3961,7916 3994,7929 4034,7929 4072,7929 4105,7915 4133,7887 4160,7858 4174,7824 4174,7785 4174,7743 4161,7709 4134,7681 4108,7654 4074,7640 4034,7640 3994,7640 3961,7654 3934,7681 3907,7709 3894,7743 3894,7785 Z M 3894,7785 L 3894,7785 Z M 3769,7785 L 3769,7785 C 3769,7749 3775,7716 3788,7684 3802,7653 3821,7625 3847,7601 3871,7577 3900,7559 3932,7546 3964,7534 3998,7528 4033,7528 4069,7528 4103,7534 4136,7547 4168,7559 4197,7578 4222,7602 4248,7626 4267,7653 4280,7684 4293,7716 4300,7749 4300,7785 4300,7820 4293,7854 4280,7885 4267,7916 4248,7944 4222,7968 4198,7991 4169,8009 4137,8022 4104,8035 4069,8041 4033,8041 3997,8041 3963,8035 3932,8023 3900,8010 3872,7992 3847,7968 3821,7943 3802,7915 3789,7884 3775,7852 3769,7819 3769,7785 Z M 3769,7785 L 3769,7785 Z M 4358,8038 L 4358,8038 4358,7539 4470,7531 4470,7616 C 4487,7584 4510,7561 4539,7546 4567,7531 4604,7524 4647,7524 L 4662,7524 4619,7642 C 4571,7642 4536,7656 4514,7682 4492,7710 4481,7752 4481,7809 L 4481,8031 4358,8038 Z M 4358,8038 L 4358,8038 Z M 4695,8038 L 4695,8038 4695,7539 4808,7531 4808,7616 C 4824,7584 4847,7561 4876,7546 4905,7531 4941,7524 4985,7524 L 4999,7524 4956,7642 C 4908,7642 4873,7656 4851,7682 4829,7710 4818,7752 4818,7809 L 4818,8031 4695,8038 Z M 4695,8038 L 4695,8038 Z M 5106,7785 L 5106,7785 C 5106,7826 5119,7860 5146,7888 5173,7916 5206,7929 5246,7929 5284,7929 5317,7915 5345,7887 5373,7858 5387,7824 5387,7785 5387,7743 5373,7709 5347,7681 5320,7654 5286,7640 5246,7640 5206,7640 5173,7654 5146,7681 5119,7709 5106,7743 5106,7785 Z M 5106,7785 L 5106,7785 Z M 4981,7785 L 4981,7785 C 4981,7819 4988,7852 5001,7884 5014,7915 5034,7943 5059,7968 5084,7992 5112,8010 5144,8023 5175,8035 5209,8041 5246,8041 5282,8041 5316,8035 5349,8022 5382,8009 5410,7991 5435,7968 5460,7944 5479,7916 5492,7885 5505,7854 5512,7820 5512,7785 5512,7749 5505,7716 5492,7684 5479,7653 5460,7626 5435,7602 5409,7578 5380,7559 5348,7547 5315,7534 5281,7528 5246,7528 5210,7528 5176,7534 5144,7546 5112,7559 5084,7577 5059,7601 5033,7625 5014,7653 5001,7684 4988,7716 4981,7749 4981,7785 Z M 4981,7785 L 4981,7785 Z M 5536,7966 L 5536,7966 5611,7889 C 5628,7906 5645,7919 5662,7927 5680,7936 5699,7940 5719,7940 5741,7940 5759,7936 5771,7927 5783,7918 5790,7906 5790,7890 5790,7870 5768,7853 5724,7840 5708,7835 5695,7831 5686,7828 5639,7812 5604,7793 5583,7769 5562,7746 5552,7716 5552,7679 5552,7634 5568,7597 5602,7569 5636,7540 5679,7526 5733,7526 5766,7526 5798,7532 5827,7546 5856,7559 5884,7579 5911,7607 L 5828,7673 C 5813,7657 5799,7645 5784,7637 5769,7629 5754,7625 5738,7625 5720,7625 5706,7629 5696,7637 5686,7645 5681,7656 5681,7670 5681,7684 5687,7695 5699,7705 5712,7714 5740,7725 5783,7738 5833,7753 5868,7772 5889,7794 5909,7815 5920,7845 5920,7882 5920,7931 5902,7970 5867,8000 5831,8030 5784,8045 5726,8045 5689,8045 5655,8038 5623,8025 5591,8012 5562,7992 5536,7966 Z M 5536,7966 L 5536,7966 Z M 6208,8031 L 6208,8031 6339,7346 6561,7793 6781,7346 6913,8031 6782,8045 6729,7712 6561,8045 6392,7712 6338,8045 6208,8031 Z M 6208,8031 L 6208,8031 Z M 7345,7531 L 7345,7531 7345,8031 7231,8042 7231,7966 C 7212,7991 7191,8010 7168,8023 7144,8036 7118,8042 7090,8042 7041,8042 7004,8027 6978,7995 6952,7964 6939,7919 6939,7861 L 6939,7539 7062,7531 7062,7825 C 7062,7865 7067,7894 7079,7909 7089,7925 7106,7933 7131,7933 7160,7933 7183,7923 7198,7903 7214,7883 7221,7853 7221,7814 L 7221,7539 7345,7531 Z M 7345,7531 L 7345,7531 Z M 7676,8041 L 7676,8041 C 7674,8041 7671,8041 7667,8042 7651,8043 7640,8043 7634,8043 7569,8043 7522,8026 7492,7993 7462,7960 7447,7907 7447,7834 L 7447,7646 7369,7646 7399,7539 7447,7539 7447,7459 7569,7399 7569,7539 7683,7539 7683,7646 7569,7646 7569,7835 C 7569,7873 7576,7899 7589,7912 7602,7926 7625,7932 7659,7932 7669,7932 7678,7932 7686,7932 7693,7932 7700,7932 7707,7931 L 7676,8041 Z M 7676,8041 L 7676,8041 Z M 8132,7531 L 8132,7531 8132,8031 8018,8042 8018,7966 C 8000,7991 7979,8010 7955,8023 7932,8036 7906,8042 7878,8042 7829,8042 7792,8027 7766,7995 7740,7964 7727,7919 7727,7861 L 7727,7539 7851,7531 7851,7825 C 7851,7865 7856,7894 7866,7909 7877,7925 7894,7933 7919,7933 7948,7933 7970,7923 7986,7903 8001,7883 8009,7853 8009,7814 L 8009,7539 8132,7531 Z M 8132,7531 L 8132,7531 Z M 8312,7785 L 8312,7785 C 8312,7826 8325,7860 8352,7888 8379,7916 8412,7929 8451,7929 8490,7929 8523,7915 8551,7887 8578,7858 8592,7824 8592,7785 8592,7743 8579,7709 8552,7681 8525,7654 8492,7640 8451,7640 8412,7640 8379,7654 8352,7681 8325,7709 8312,7743 8312,7785 Z M 8312,7785 L 8312,7785 Z M 8186,7785 L 8186,7785 C 8186,7749 8193,7716 8206,7684 8219,7653 8239,7625 8264,7601 8289,7577 8318,7559 8350,7546 8381,7534 8415,7528 8451,7528 8487,7528 8521,7534 8553,7547 8586,7559 8615,7578 8640,7602 8665,7626 8684,7653 8697,7684 8711,7716 8717,7749 8717,7785 8717,7820 8711,7854 8697,7885 8684,7916 8665,7944 8640,7968 8616,7991 8587,8009 8554,8022 8521,8035 8487,8041 8451,8041 8415,8041 8381,8035 8349,8023 8318,8010 8289,7992 8264,7968 8239,7943 8220,7915 8206,7884 8193,7852 8186,7819 8186,7785 Z M 8186,7785 L 8186,7785 Z M 8742,7966 L 8742,7966 8817,7889 C 8833,7906 8850,7919 8868,7927 8885,7936 8904,7940 8925,7940 8947,7940 8964,7936 8976,7927 8989,7918 8995,7906 8995,7890 8995,7870 8973,7853 8929,7840 8913,7835 8901,7831 8892,7828 8844,7812 8810,7793 8789,7769 8768,7746 8757,7716 8757,7679 8757,7634 8774,7597 8807,7569 8841,7540 8885,7526 8938,7526 8972,7526 9003,7532 9032,7546 9062,7559 9090,7579 9116,7607 L 9034,7673 C 9019,7657 9004,7645 8989,7637 8975,7629 8959,7625 8943,7625 8925,7625 8912,7629 8901,7637 8891,7645 8886,7656 8886,7670 8886,7684 8892,7695 8905,7705 8918,7714 8945,7725 8988,7738 9039,7753 9074,7772 9094,7794 9115,7815 9125,7845 9125,7882 9125,7931 9107,7970 9072,8000 9037,8030 8990,8045 8931,8045 8895,8045 8861,8038 8829,8025 8797,8012 8768,7992 8742,7966 Z"/>
        </g>
       </g>
       <g class="com.sun.star.drawing.ClosedBezierShape">
        <g id="id15">
         <rect class="BoundingBox" stroke="none" fill="none" x="3000" y="9038" width="4012" height="438"/>
         <path fill="#fff" stroke="none" d="M 3066,9337 L 3080,9337 C 3116,9337 3144,9328 3165,9309 3185,9290 3196,9265 3196,9233 3196,9202 3185,9177 3164,9158 3144,9138 3116,9129 3080,9129 L 3066,9129 3066,9337 Z M 3066,9337 L 3066,9337 Z M 3000,9066 L 3000,9066 3070,9066 C 3130,9066 3177,9081 3211,9110 3245,9140 3263,9182 3263,9233 3263,9284 3245,9325 3211,9355 3177,9385 3130,9400 3070,9400 L 3000,9400 3000,9066 Z M 3000,9066 L 3000,9066 Z M 3300,9400 L 3300,9400 3300,9066 3477,9066 3490,9126 3366,9126 3366,9193 3463,9193 3463,9254 3366,9254 3366,9336 3506,9336 3483,9400 3300,9400 Z M 3300,9400 L 3300,9400 Z M 3641,9410 L 3641,9410 3793,9066 3725,9058 3654,9228 C 3652,9233 3650,9239 3648,9246 3646,9253 3644,9261 3642,9269 3641,9262 3640,9256 3638,9249 3636,9242 3633,9235 3630,9229 L 3558,9058 3488,9066 3641,9410 Z M 3641,9410 L 3641,9410 Z M 3845,9233 L 3845,9233 C 3845,9266 3855,9293 3875,9315 3895,9336 3921,9347 3951,9347 3982,9347 4008,9336 4028,9315 4048,9293 4059,9266 4059,9233 4059,9201 4048,9173 4028,9152 4007,9129 3982,9118 3951,9118 3921,9118 3896,9129 3875,9152 3855,9173 3845,9200 3845,9233 Z M 3845,9233 L 3845,9233 Z M 3778,9233 L 3778,9233 C 3778,9209 3782,9187 3791,9166 3799,9144 3812,9125 3828,9108 3845,9092 3863,9080 3884,9071 3905,9063 3928,9059 3951,9059 3975,9059 3998,9063 4019,9071 4040,9080 4059,9092 4075,9108 4092,9125 4104,9143 4113,9165 4121,9186 4125,9209 4125,9233 4125,9257 4121,9280 4113,9301 4104,9322 4092,9340 4075,9357 4059,9374 4040,9386 4019,9395 3998,9403 3975,9407 3951,9407 3928,9407 3905,9403 3884,9395 3863,9386 3845,9374 3828,9357 3812,9340 3799,9321 3791,9301 3782,9280 3778,9257 3778,9233 Z M 3778,9233 L 3778,9233 Z M 4218,9405 L 4218,9405 4218,9129 4127,9129 4144,9066 4365,9066 4365,9129 4283,9129 4283,9400 4218,9405 Z M 4218,9405 L 4218,9405 Z M 4442,9233 L 4442,9233 C 4442,9266 4452,9293 4472,9315 4492,9336 4518,9347 4548,9347 4579,9347 4605,9336 4625,9315 4645,9293 4655,9266 4655,9233 4655,9201 4645,9173 4625,9152 4604,9129 4579,9118 4548,9118 4518,9118 4493,9129 4472,9152 4452,9173 4442,9200 4442,9233 Z M 4442,9233 L 4442,9233 Z M 4375,9233 L 4375,9233 C 4375,9209 4379,9187 4387,9166 4396,9144 4409,9125 4425,9108 4442,9092 4460,9080 4481,9071 4502,9063 4525,9059 4548,9059 4572,9059 4595,9063 4616,9071 4637,9080 4656,9092 4672,9108 4689,9125 4701,9143 4710,9165 4718,9186 4722,9209 4722,9233 4722,9257 4718,9280 4710,9301 4701,9322 4689,9340 4672,9357 4656,9374 4637,9386 4616,9395 4595,9403 4572,9407 4548,9407 4525,9407 4502,9403 4481,9395 4460,9386 4442,9374 4425,9357 4409,9340 4396,9321 4387,9301 4379,9280 4375,9257 4375,9233 Z M 4375,9233 L 4375,9233 Z M 5023,9065 L 5023,9065 C 4993,9090 4970,9118 4955,9152 4940,9184 4932,9219 4932,9256 4932,9293 4940,9327 4955,9360 4970,9393 4993,9422 5023,9447 L 4995,9474 C 4961,9446 4935,9414 4917,9377 4899,9339 4890,9299 4890,9256 4890,9213 4899,9173 4917,9135 4935,9098 4961,9065 4995,9038 L 5023,9065 Z M 5023,9065 L 5023,9065 Z M 5280,9393 L 5280,9393 C 5270,9398 5260,9401 5249,9404 5238,9406 5226,9407 5213,9407 5197,9407 5181,9405 5166,9401 5151,9396 5137,9389 5124,9380 5099,9362 5080,9341 5067,9316 5053,9291 5047,9263 5047,9233 5047,9209 5051,9187 5059,9166 5068,9144 5080,9125 5097,9108 5113,9092 5132,9080 5152,9071 5172,9063 5193,9059 5216,9059 5227,9059 5237,9060 5247,9061 5257,9063 5266,9066 5275,9070 L 5286,9141 C 5274,9133 5263,9128 5252,9124 5240,9120 5229,9118 5217,9118 5188,9118 5164,9129 5144,9152 5124,9174 5114,9201 5114,9233 5114,9265 5124,9292 5144,9314 5164,9336 5188,9347 5218,9347 5229,9347 5241,9345 5252,9340 5263,9336 5275,9329 5287,9319 L 5280,9393 Z M 5280,9393 L 5280,9393 Z M 5374,9276 L 5374,9276 C 5374,9297 5381,9314 5394,9328 5408,9342 5424,9349 5444,9349 5463,9349 5480,9342 5494,9327 5507,9313 5514,9296 5514,9276 5514,9256 5508,9238 5494,9225 5481,9211 5464,9205 5444,9205 5424,9205 5408,9211 5394,9225 5381,9239 5374,9256 5374,9276 Z M 5374,9276 L 5374,9276 Z M 5311,9276 L 5311,9276 C 5311,9259 5315,9242 5321,9227 5328,9211 5338,9197 5350,9185 5363,9173 5377,9164 5393,9158 5409,9151 5426,9148 5444,9148 5462,9148 5479,9152 5495,9158 5511,9164 5526,9173 5538,9185 5551,9197 5560,9211 5567,9227 5574,9242 5577,9259 5577,9276 5577,9294 5574,9311 5567,9326 5560,9342 5551,9356 5538,9369 5526,9381 5512,9390 5495,9396 5479,9402 5462,9406 5444,9406 5426,9406 5409,9402 5393,9396 5377,9390 5363,9381 5350,9369 5338,9356 5328,9341 5321,9326 5315,9310 5311,9294 5311,9276 Z M 5311,9276 L 5311,9276 Z M 5410,9121 L 5410,9121 5458,9039 5510,9039 5441,9121 5410,9121 Z M 5410,9121 L 5410,9121 Z M 5613,9404 L 5613,9404 5613,9154 5669,9150 5669,9192 C 5677,9177 5689,9165 5703,9158 5717,9150 5736,9145 5758,9145 L 5765,9145 5743,9206 C 5719,9206 5702,9212 5691,9226 5680,9239 5674,9260 5674,9289 L 5674,9400 5613,9404 Z M 5613,9404 L 5613,9404 Z M 5824,9277 L 5824,9277 C 5824,9298 5831,9315 5844,9329 5857,9342 5873,9349 5894,9349 5914,9349 5930,9342 5944,9328 5957,9315 5963,9298 5963,9277 5963,9256 5957,9239 5943,9225 5930,9211 5914,9205 5894,9205 5875,9205 5858,9212 5845,9226 5831,9240 5824,9257 5824,9277 Z M 5824,9277 L 5824,9277 Z M 5968,9368 L 5968,9368 5968,9404 6025,9400 6025,9058 5963,9062 5963,9180 C 5953,9170 5942,9162 5930,9157 5918,9152 5904,9149 5889,9149 5870,9149 5854,9152 5840,9157 5826,9163 5813,9171 5801,9182 5789,9195 5779,9209 5772,9225 5766,9241 5762,9258 5762,9277 5762,9295 5766,9312 5772,9328 5779,9345 5789,9358 5801,9371 5813,9383 5826,9392 5840,9397 5854,9402 5869,9405 5886,9405 5904,9405 5919,9402 5933,9396 5946,9390 5958,9381 5968,9368 Z M 5968,9368 L 5968,9368 Z M 6121,9276 L 6121,9276 C 6121,9297 6128,9314 6141,9328 6155,9342 6171,9349 6191,9349 6210,9349 6227,9342 6241,9327 6255,9313 6261,9296 6261,9276 6261,9256 6255,9238 6241,9225 6228,9211 6211,9205 6191,9205 6171,9205 6155,9211 6141,9225 6128,9239 6121,9256 6121,9276 Z M 6121,9276 L 6121,9276 Z M 6059,9276 L 6059,9276 C 6059,9259 6062,9242 6069,9227 6075,9211 6085,9197 6098,9185 6110,9173 6124,9164 6140,9158 6156,9151 6173,9148 6191,9148 6209,9148 6226,9152 6242,9158 6258,9164 6273,9173 6286,9185 6298,9197 6308,9211 6314,9227 6321,9242 6324,9259 6324,9276 6324,9294 6321,9311 6314,9326 6308,9342 6298,9356 6286,9369 6273,9381 6259,9390 6243,9396 6226,9402 6209,9406 6191,9406 6173,9406 6156,9402 6140,9396 6124,9390 6110,9381 6098,9369 6085,9356 6075,9341 6069,9326 6062,9310 6059,9294 6059,9276 Z M 6059,9276 L 6059,9276 Z M 6412,9276 L 6412,9276 C 6412,9297 6419,9314 6432,9328 6446,9342 6462,9349 6482,9349 6501,9349 6518,9342 6531,9327 6545,9313 6552,9296 6552,9276 6552,9256 6545,9238 6532,9225 6519,9211 6502,9205 6482,9205 6462,9205 6445,9211 6432,9225 6419,9238 6412,9255 6412,9276 Z M 6412,9276 L 6412,9276 Z M 6353,9274 L 6353,9274 6353,9063 6414,9058 6414,9175 C 6422,9167 6433,9160 6445,9156 6456,9151 6470,9149 6485,9149 6522,9149 6553,9161 6578,9186 6602,9210 6615,9240 6615,9276 6615,9294 6611,9311 6605,9327 6598,9342 6589,9356 6577,9369 6564,9381 6550,9390 6534,9396 6518,9402 6501,9406 6484,9406 6446,9406 6415,9393 6390,9369 6365,9343 6353,9312 6353,9274 Z M 6353,9274 L 6353,9274 Z M 6697,9317 L 6697,9317 C 6697,9328 6701,9337 6709,9343 6717,9349 6728,9353 6742,9353 6756,9353 6766,9349 6774,9343 6782,9337 6786,9328 6786,9317 6786,9306 6782,9297 6774,9291 6766,9284 6756,9281 6742,9281 6728,9281 6717,9284 6709,9291 6701,9297 6697,9306 6697,9317 Z M 6697,9317 L 6697,9317 Z M 6789,9406 L 6789,9406 6789,9381 C 6782,9389 6772,9395 6762,9399 6751,9403 6739,9406 6726,9406 6699,9406 6678,9397 6661,9381 6645,9364 6636,9343 6636,9318 6636,9293 6645,9273 6661,9257 6678,9242 6700,9235 6727,9235 6739,9235 6750,9236 6759,9239 6769,9242 6778,9246 6786,9252 L 6786,9231 C 6786,9221 6782,9213 6774,9208 6765,9203 6753,9200 6736,9200 6723,9200 6710,9202 6698,9204 6686,9206 6675,9210 6666,9215 L 6680,9156 C 6693,9153 6706,9151 6717,9149 6729,9148 6739,9146 6749,9146 6782,9146 6805,9154 6821,9167 6836,9180 6843,9201 6843,9229 L 6843,9400 6789,9406 Z M 6789,9406 L 6789,9406 Z M 6878,9447 L 6878,9447 C 6907,9422 6930,9393 6945,9360 6961,9327 6968,9293 6968,9256 6968,9219 6961,9184 6945,9152 6930,9118 6907,9090 6878,9065 L 6905,9038 C 6940,9065 6966,9098 6984,9135 7002,9173 7011,9213 7011,9256 7011,9299 7002,9339 6984,9377 6966,9414 6940,9446 6905,9474 L 6878,9447 Z"/>
        </g>
       </g>
      </g>
     </g>
    </g>
   </g>
  </g>
 </g>
</svg>
